#!OML:ASF H:\LiuWeirdWalks\Patient Classification 1\Patient 1\Session 1\male.ASF
:FULLY-SPECIFIED
:DEGREES
1016
root 1.51431 17.8211 10.3983 1.1198 -3.32112 4.13666
lowerback 2.10495 -4.93327 -6.99857
upperback -1.02682 -6.75805 2.11055
thorax -1.17991 -3.30941 6.24409
lowerneck -14.9047 1.58278 6.61023
upperneck 20.965 1.77086 -5.38368
head 9.14806 0.755857 -2.74243
rclavicle 1.01753e-014 6.36111e-015
rhumerus -47.3086 -12.1499 -71.5351
rradius 28.3611
rwrist -6.12774
rhand -17.658 -4.65769
rfingers 7.12502
rthumb 8.6004 -34.4625
lclavicle 1.01753e-014 6.36111e-015
lhumerus -25.7907 -4.58645 92.2634
lradius 34.83
lwrist 16.4714
lhand -13.5501 -1.54292
lfingers 7.12502
lthumb 12.5629 28.0594
rfemur -30.6993 3.73025 15.8722
rtibia 25.2084
rfoot -16.7411 -18.284
rtoes -14.1075
lfemur 14.9238 -1.49474 -29.8608
ltibia 6.84699
lfoot -7.25275 16.0306
ltoes -15.1541
1017
root 1.50199 17.8257 10.4659 1.25798 -3.40865 4.01523
lowerback 2.13861 -4.89664 -6.7849
upperback -1.05237 -6.7049 2.16444
thorax -1.25095 -3.28105 6.18732
lowerneck -14.983 1.59511 6.6138
upperneck 20.9508 1.79117 -5.42225
head 9.15932 0.760558 -2.75379
rclavicle -8.27068e-014 1.03368e-014
rhumerus -47.2598 -12.1783 -71.481
rradius 28.2943
rwrist -6.02699
rhand -17.6248 -4.5944
rfingers 7.12502
rthumb 8.63243 -34.3979
lclavicle -8.27068e-014 1.03368e-014
lhumerus -25.7509 -4.42632 92.2381
lradius 34.6942
lwrist 16.3911
lhand -13.6202 -1.61412
lfingers 7.12502
lthumb 12.4953 27.9923
rfemur -30.7317 3.63743 16.0562
rtibia 25.2525
rfoot -16.4036 -17.8016
rtoes -14.4089
lfemur 14.8785 -1.48266 -29.7119
ltibia 7.10572
lfoot -7.20617 16.001
ltoes -15.4573
1018
root 1.49046 17.8311 10.533 1.39686 -3.52532 3.86854
lowerback 2.19034 -4.88452 -6.56704
upperback -1.02663 -6.68393 2.23007
thorax -1.27269 -3.27251 6.13867
lowerneck -15.2248 1.65861 6.66013
upperneck 20.9808 1.86593 -5.4728
head 9.22069 0.791035 -2.77078
rclavicle -3.85145e-014 2.14687e-014
rhumerus -47.0446 -12.1763 -71.5087
rradius 28.1857
rwrist -5.90322
rhand -17.5822 -4.51594
rfingers 7.12502
rthumb 8.67353 -34.3178
lclavicle -3.85145e-014 2.14687e-014
lhumerus -25.6023 -4.16945 92.1382
lradius 34.5492
lwrist 16.3129
lhand -13.6726 -1.63706
lfingers 7.12502
lthumb 12.4448 27.9724
rfemur -30.7723 3.52421 16.2727
rtibia 25.3312
rfoot -16.0841 -17.3067
rtoes -14.7086
lfemur 14.7762 -1.44008 -29.5381
ltibia 7.4703
lfoot -7.19175 15.9688
ltoes -15.7874
1019
root 1.47933 17.837 10.6001 1.52893 -3.66525 3.72711
lowerback 2.24463 -4.85545 -6.34782
upperback -0.97262 -6.63963 2.29559
thorax -1.27013 -3.25405 6.08762
lowerneck -15.5268 1.7162 6.67853
upperneck 20.9915 1.93339 -5.5151
head 9.28582 0.815908 -2.78073
rclavicle 4.29872e-015 -2.46493e-014
rhumerus -46.7657 -12.2263 -71.5208
rradius 28.0539
rwrist -5.79768
rhand -17.5599 -4.48458
rfingers 7.12502
rthumb 8.69505 -34.2855
lclavicle 4.29872e-015 -2.46493e-014
lhumerus -25.4035 -3.90478 92.0481
lradius 34.3937
lwrist 16.2205
lhand -13.688 -1.63487
lfingers 7.12502
lthumb 12.4299 27.9755
rfemur -30.8111 3.3873 16.4903
rtibia 25.4507
rfoot -15.7923 -16.8395
rtoes -14.9938
lfemur 14.6567 -1.37202 -29.3736
ltibia 7.87672
lfoot -7.17234 15.9298
ltoes -16.1121
1020
root 1.46831 17.8434 10.6674 1.64826 -3.81565 3.62071
lowerback 2.30228 -4.82218 -6.16539
upperback -0.917888 -6.59106 2.35076
thorax -1.26636 -3.23308 6.04636
lowerneck -15.7853 1.77038 6.69749
upperneck 20.9913 1.99891 -5.56019
head 9.339 0.839981 -2.79166
rclavicle -2.37548e-014 5.56597e-015
rhumerus -46.4765 -12.3142 -71.5073
rradius 27.8869
rwrist -5.66157
rhand -17.5667 -4.48558
rfingers 7.12502
rthumb 8.68847 -34.2868
lclavicle -2.37548e-014 5.56597e-015
lhumerus -25.2194 -3.63662 91.9606
lradius 34.2333
lwrist 16.1342
lhand -13.6791 -1.5885
lfingers 7.12502
lthumb 12.4385 28.0214
rfemur -30.8423 3.2047 16.683
rtibia 25.6112
rfoot -15.5403 -16.4341
rtoes -15.2337
lfemur 14.5645 -1.29096 -29.2517
ltibia 8.24731
lfoot -7.10657 15.8737
ltoes -16.4238
1021
root 1.45674 17.8503 10.7358 1.75576 -3.95753 3.57676
lowerback 2.35261 -4.76912 -6.03982
upperback -0.856836 -6.51744 2.39035
thorax -1.2511 -3.19957 6.0192
lowerneck -16.0549 1.80464 6.68627
upperneck 20.9801 2.04323 -5.60351
head 9.38861 0.851714 -2.79934
rclavicle 5.20816e-014 -5.56597e-015
rhumerus -46.1955 -12.4725 -71.4438
rradius 27.7218
rwrist -5.52294
rhand -17.607 -4.52466
rfingers 7.12502
rthumb 8.64961 -34.3275
lclavicle 5.20816e-014 -5.56597e-015
lhumerus -25.0349 -3.39965 91.9137
lradius 34.0701
lwrist 16.0261
lhand -13.6654 -1.53502
lfingers 7.12502
lthumb 12.4517 28.0741
rfemur -30.8673 2.96838 16.8221
rtibia 25.8087
rfoot -15.321 -16.124
rtoes -15.4187
lfemur 14.5262 -1.21731 -29.2003
ltibia 8.5305
lfoot -6.97142 15.8001
ltoes -16.7177
1022
root 1.4447 17.8576 10.8053 1.84636 -4.08757 3.60052
lowerback 2.39066 -4.6988 -5.97069
upperback -0.835039 -6.42283 2.40377
thorax -1.26954 -3.15261 5.99718
lowerneck -16.1299 1.8039 6.66441
upperneck 20.9129 2.05253 -5.649
head 9.37988 0.848201 -2.80927
rclavicle -7.85448e-014 0
rhumerus -46.0454 -12.6325 -71.3372
rradius 27.5877
rwrist -5.39901
rhand -17.6631 -4.53918
rfingers 7.12502
rthumb 8.59549 -34.3442
lclavicle -7.85448e-014 0
lhumerus -24.9702 -3.22426 91.9114
lradius 33.9168
lwrist 15.9158
lhand -13.6825 -1.51641
lfingers 7.12502
lthumb 12.4352 28.0937
rfemur -30.8782 2.66627 16.906
rtibia 26.0277
rfoot -15.1451 -15.8937
rtoes -15.4485
lfemur 14.554 -1.15419 -29.2252
ltibia 8.70905
lfoot -6.76368 15.7091
ltoes -16.9958
1023
root 1.43143 17.8657 10.8758 1.93077 -4.20274 3.66832
lowerback 2.41465 -4.61676 -5.94776
upperback -0.81646 -6.31347 2.40478
thorax -1.28196 -3.09798 5.98655
lowerneck -16.1584 1.78438 6.62512
upperneck 20.8068 2.04272 -5.69743
head 9.34739 0.834567 -2.819
rclavicle 4.10987e-014 7.95139e-016
rhumerus -45.9337 -12.7896 -71.2274
rradius 27.4923
rwrist -5.3224
rhand -17.7235 -4.57561
rfingers 7.12502
rthumb 8.53715 -34.383
lclavicle 4.10987e-014 7.95139e-016
lhumerus -24.9362 -3.08526 91.9396
lradius 33.7696
lwrist 15.7672
lhand -13.6893 -1.55733
lfingers 7.12502
lthumb 12.4287 28.0531
rfemur -30.8793 2.33447 16.9542
rtibia 26.2495
rfoot -14.9917 -15.7541
rtoes -15.3797
lfemur 14.6345 -1.10708 -29.2945
ltibia 8.78819
lfoot -6.48273 15.6015
ltoes -17.2935
1024
root 1.41728 17.8749 10.9474 2.0132 -4.30246 3.75901
lowerback 2.42736 -4.52363 -5.94262
upperback -0.796402 -6.18931 2.40022
thorax -1.28739 -3.03609 5.97869
lowerneck -16.194 1.75232 6.55839
upperneck 20.6969 2.01999 -5.73671
head 9.31366 0.813711 -2.8225
rclavicle -9.29318e-014 2.70347e-014
rhumerus -45.8525 -12.9384 -71.1168
rradius 27.4398
rwrist -5.28711
rhand -17.7764 -4.54774
rfingers 7.12502
rthumb 8.48616 -34.3572
lclavicle -9.29318e-014 2.70347e-014
lhumerus -24.9119 -3.00902 91.9976
lradius 33.6321
lwrist 15.5951
lhand -13.6864 -1.65065
lfingers 7.12502
lthumb 12.4314 27.9597
rfemur -30.8626 1.98316 16.9856
rtibia 26.4492
rfoot -14.8565 -15.6644
rtoes -15.2177
lfemur 14.7444 -1.0766 -29.3855
ltibia 8.80785
lfoot -6.16263 15.4829
ltoes -17.6288
1025
root 1.40198 17.8851 11.0202 2.10618 -4.37249 3.85668
lowerback 2.41819 -4.43167 -5.94183
upperback -0.783642 -6.0658 2.39195
thorax -1.28797 -2.97447 5.96765
lowerneck -16.1946 1.70932 6.48375
upperneck 20.5664 1.98655 -5.78039
head 9.26553 0.787218 -2.82712
rclavicle -9.98396e-014 1.19271e-014
rhumerus -45.7993 -13.0665 -71.0233
rradius 27.4257
rwrist -5.31947
rhand -17.8325 -4.54612
rfingers 7.12502
rthumb 8.432 -34.3578
lclavicle -9.98396e-014 1.19271e-014
lhumerus -24.9083 -2.98051 92.0742
lradius 33.4978
lwrist 15.4344
lhand -13.6844 -1.79229
lfingers 7.12502
lthumb 12.4334 27.8179
rfemur -30.8278 1.64182 17.0051
rtibia 26.6074
rfoot -14.7272 -15.5982
rtoes -15.0851
lfemur 14.8443 -1.07876 -29.4773
ltibia 8.82244
lfoot -5.81021 15.3606
ltoes -17.9859
1026
root 1.38557 17.8964 11.094 2.21232 -4.41452 3.92671
lowerback 2.40166 -4.38303 -5.94223
upperback -0.758841 -5.99953 2.38962
thorax -1.26283 -2.94286 5.96228
lowerneck -16.2712 1.70863 6.47122
upperneck 20.5202 1.99597 -5.83467
head 9.26462 0.783658 -2.84205
rclavicle -3.2054e-014 7.95139e-016
rhumerus -45.691 -13.1011 -71.0389
rradius 27.4352
rwrist -5.37773
rhand -17.87 -4.51259
rfingers 7.12502
rthumb 8.39582 -34.3257
lclavicle -3.2054e-014 7.95139e-016
lhumerus -24.8897 -2.92933 92.0877
lradius 33.3882
lwrist 15.3543
lhand -13.6838 -1.90051
lfingers 7.12502
lthumb 12.434 27.7096
rfemur -30.7703 1.34927 17.0413
rtibia 26.7175
rfoot -14.5931 -15.531
rtoes -14.967
lfemur 14.9243 -1.11132 -29.531
ltibia 8.85524
lfoot -5.44961 15.2347
ltoes -18.3697
